<?xml version="1.0" encoding="UTF-8"?>
<svg xmlns="http://www.w3.org/2000/svg" version="1.1" width="300" height="300" viewBox="0 0 300 300"><rect x="0" y="0" width="300" height="300" fill="#ffffff"/><g transform="scale(10.345)"><g transform="translate(0,0)"><path fill-rule="evenodd" d="M12 0L12 1L13 1L13 2L12 2L12 3L8 3L8 4L9 4L9 5L8 5L8 7L9 7L9 8L6 8L6 9L5 9L5 8L0 8L0 11L1 11L1 10L2 10L2 11L3 11L3 12L4 12L4 11L3 11L3 9L4 9L4 10L5 10L5 11L7 11L7 12L5 12L5 13L2 13L2 12L0 12L0 14L1 14L1 15L3 15L3 16L4 16L4 14L5 14L5 15L7 15L7 14L9 14L9 15L8 15L8 16L6 16L6 17L10 17L10 18L9 18L9 19L7 19L7 18L6 18L6 19L5 19L5 18L4 18L4 17L2 17L2 18L4 18L4 19L2 19L2 20L4 20L4 19L5 19L5 20L6 20L6 21L8 21L8 23L11 23L11 22L13 22L13 23L12 23L12 24L13 24L13 25L11 25L11 24L10 24L10 26L12 26L12 29L14 29L14 28L13 28L13 27L14 27L14 26L15 26L15 28L16 28L16 27L18 27L18 28L17 28L17 29L18 29L18 28L19 28L19 29L20 29L20 28L21 28L21 29L25 29L25 28L26 28L26 29L27 29L27 28L28 28L28 26L29 26L29 25L28 25L28 24L29 24L29 23L27 23L27 22L28 22L28 21L29 21L29 19L27 19L27 20L28 20L28 21L27 21L27 22L25 22L25 21L26 21L26 19L25 19L25 20L24 20L24 19L23 19L23 20L20 20L20 19L21 19L21 18L25 18L25 17L19 17L19 18L20 18L20 19L19 19L19 20L20 20L20 21L19 21L19 22L17 22L17 21L18 21L18 20L17 20L17 17L18 17L18 16L19 16L19 14L20 14L20 15L21 15L21 16L22 16L22 14L21 14L21 13L20 13L20 12L19 12L19 10L21 10L21 12L23 12L23 14L24 14L24 15L23 15L23 16L24 16L24 15L25 15L25 13L26 13L26 15L27 15L27 14L29 14L29 12L28 12L28 13L27 13L27 12L25 12L25 13L24 13L24 12L23 12L23 11L26 11L26 10L25 10L25 9L26 9L26 8L25 8L25 9L24 9L24 8L23 8L23 9L24 9L24 10L22 10L22 8L21 8L21 9L19 9L19 5L20 5L20 7L21 7L21 4L19 4L19 2L18 2L18 1L20 1L20 2L21 2L21 0L17 0L17 1L16 1L16 0L15 0L15 3L14 3L14 4L12 4L12 3L13 3L13 2L14 2L14 0ZM8 1L8 2L9 2L9 1ZM10 1L10 2L11 2L11 1ZM17 2L17 3L15 3L15 4L14 4L14 5L16 5L16 4L17 4L17 3L18 3L18 2ZM10 4L10 6L9 6L9 7L10 7L10 6L11 6L11 8L10 8L10 9L6 9L6 10L7 10L7 11L8 11L8 12L11 12L11 13L9 13L9 14L10 14L10 15L9 15L9 16L11 16L11 17L13 17L13 16L14 16L14 14L16 14L16 15L15 15L15 16L18 16L18 15L17 15L17 14L18 14L18 13L19 13L19 12L18 12L18 9L17 9L17 8L18 8L18 6L17 6L17 8L16 8L16 6L15 6L15 7L14 7L14 6L13 6L13 8L12 8L12 5L11 5L11 4ZM18 4L18 5L19 5L19 4ZM11 8L11 9L10 9L10 11L11 11L11 10L12 10L12 11L14 11L14 12L13 12L13 13L11 13L11 14L14 14L14 13L15 13L15 11L16 11L16 12L17 12L17 9L16 9L16 10L14 10L14 9L15 9L15 8L13 8L13 9L12 9L12 8ZM27 8L27 10L29 10L29 9L28 9L28 8ZM6 13L6 14L7 14L7 13ZM16 13L16 14L17 14L17 13ZM11 15L11 16L13 16L13 15ZM26 16L26 17L27 17L27 18L29 18L29 17L28 17L28 16ZM0 17L0 21L1 21L1 17ZM14 17L14 18L16 18L16 17ZM11 18L11 19L10 19L10 20L11 20L11 21L13 21L13 22L14 22L14 23L13 23L13 24L14 24L14 25L15 25L15 26L16 26L16 25L17 25L17 24L18 24L18 25L20 25L20 27L22 27L22 28L23 28L23 27L22 27L22 26L25 26L25 27L26 27L26 28L27 28L27 26L28 26L28 25L27 25L27 26L26 26L26 24L27 24L27 23L26 23L26 24L25 24L25 25L20 25L20 24L18 24L18 23L17 23L17 22L16 22L16 21L17 21L17 20L16 20L16 19L15 19L15 20L16 20L16 21L15 21L15 22L14 22L14 21L13 21L13 20L14 20L14 19L13 19L13 20L11 20L11 19L12 19L12 18ZM6 19L6 20L7 20L7 19ZM9 21L9 22L10 22L10 21ZM21 21L21 24L24 24L24 21ZM15 22L15 23L16 23L16 24L17 24L17 23L16 23L16 22ZM22 22L22 23L23 23L23 22ZM8 24L8 29L11 29L11 28L10 28L10 27L9 27L9 24ZM18 26L18 27L19 27L19 26ZM0 0L0 7L7 7L7 0ZM1 1L1 6L6 6L6 1ZM2 2L2 5L5 5L5 2ZM22 0L22 7L29 7L29 0ZM23 1L23 6L28 6L28 1ZM24 2L24 5L27 5L27 2ZM0 22L0 29L7 29L7 22ZM1 23L1 28L6 28L6 23ZM2 24L2 27L5 27L5 24Z" fill="#000000"/></g></g></svg>
